HIERARCHY
ROOT Hips
{
  OFFSET 5.84602e-005 68.8428 3.50346
  CHANNELS 6 Xposition Yposition Zposition Zrotation Xrotation Yrotation
  JOINT Spine
  {
    OFFSET 0 8.597 -4.6522
    CHANNELS 3 Zrotation Xrotation Yrotation
    JOINT Spine1
    {
      OFFSET 0 7.8454 0.4098
      CHANNELS 3 Zrotation Xrotation Yrotation
      JOINT Spine2
      {
        OFFSET 0 9.7078 -2.1609
        CHANNELS 3 Zrotation Xrotation Yrotation
        JOINT Neck
        {
          OFFSET 0 21.8761 -0.4549
          CHANNELS 3 Zrotation Xrotation Yrotation
          JOINT Head
          {
            OFFSET 0 12.3537 3.3602
            CHANNELS 3 Zrotation Xrotation Yrotation
            End Site
            {
              OFFSET 0.0001 18.9506 0.5657
            }
          }
        }
        JOINT LeftShoulder
        {
          OFFSET 2.2086 21.1115 7.2329
          CHANNELS 3 Zrotation Xrotation Yrotation
          JOINT LeftArm
          {
            OFFSET 13.1193 3.0282 -4.8998
            CHANNELS 3 Zrotation Xrotation Yrotation
            JOINT LeftForeArm
            {
              OFFSET 27.4081 -0.0973053 -0.2375
              CHANNELS 3 Zrotation Xrotation Yrotation
              JOINT LeftHand
              {
                OFFSET 22.8641 0.0662994 -0.1369
                CHANNELS 3 Zrotation Xrotation Yrotation
                JOINT LeftHandIndex1
                {
                  OFFSET 8.8614 0.775009 2.4612
                  CHANNELS 3 Zrotation Xrotation Yrotation
                  JOINT LeftHandIndex2
                  {
                    OFFSET 3.3146 -0.808304 0.5841
                    CHANNELS 3 Zrotation Xrotation Yrotation
                    JOINT LeftHandIndex3
                    {
                      OFFSET 2.2628 -0.552002 0.3989
                      CHANNELS 3 Zrotation Xrotation Yrotation
                      End Site
                      {
                        OFFSET 1.6102 -0.4807 0.2612
                      }
                    }
                  }
                }
                JOINT LeftHandMiddle1
                {
                  OFFSET 8.9937 0.895004 0.2143
                  CHANNELS 3 Zrotation Xrotation Yrotation
                  JOINT LeftHandMiddle2
                  {
                    OFFSET 4.0984 0.0113983 -0.0242
                    CHANNELS 3 Zrotation Xrotation Yrotation
                    JOINT LeftHandMiddle3
                    {
                      OFFSET 2.2716 0.00689697 -0.0138001
                      CHANNELS 3 Zrotation Xrotation Yrotation
                      End Site
                      {
                        OFFSET 2.0404 -0.1441 0.0027
                      }
                    }
                  }
                }
                JOINT LeftHandRing1
                {
                  OFFSET 8.5234 0.597198 -2.0164
                  CHANNELS 3 Zrotation Xrotation Yrotation
                  JOINT LeftHandRing2
                  {
                    OFFSET 3.7188 -0.188293 -0.2328
                    CHANNELS 3 Zrotation Xrotation Yrotation
                    JOINT LeftHandRing3
                    {
                      OFFSET 2.1191 -0.106598 -0.1332
                      CHANNELS 3 Zrotation Xrotation Yrotation
                      End Site
                      {
                        OFFSET 1.8737 -0.2304 -0.0886
                      }
                    }
                  }
                }
                JOINT LeftHandPinky1
                {
                  OFFSET 7.9094 -0.601089 -3.4825
                  CHANNELS 3 Zrotation Xrotation Yrotation
                  JOINT LeftHandPinky2
                  {
                    OFFSET 2.2874 -0.477005 -0.6314
                    CHANNELS 3 Zrotation Xrotation Yrotation
                    JOINT LeftHandPinky3
                    {
                      OFFSET 1.6774 -0.349396 -0.4633
                      CHANNELS 3 Zrotation Xrotation Yrotation
                      End Site
                      {
                        OFFSET 1.4888 -0.4091 -0.3416
                      }
                    }
                  }
                }
                JOINT LeftHandThumb1
                {
                  OFFSET 1.833 -1.3875 1.3896
                  CHANNELS 3 Zrotation Xrotation Yrotation
                  JOINT LeftHandThumb2
                  {
                    OFFSET 3.4129 -1.121 2.5732
                    CHANNELS 3 Zrotation Xrotation Yrotation
                    JOINT LeftHandThumb3
                    {
                      OFFSET 2.2474 -0.804199 1.6192
                      CHANNELS 3 Zrotation Xrotation Yrotation
                      End Site
                      {
                        OFFSET 1.6527 -0.5689 1.1317
                      }
                    }
                  }
                }
              }
            }
          }
        }
        JOINT RightShoulder
        {
          OFFSET -2.2086 21.1115 7.2329
          CHANNELS 3 Zrotation Xrotation Yrotation
          JOINT RightArm
          {
            OFFSET -13.1216 3.0287 -4.9007
            CHANNELS 3 Zrotation Xrotation Yrotation
            JOINT RightForeArm
            {
              OFFSET -27.4081 -0.0973053 -0.2375
              CHANNELS 3 Zrotation Xrotation Yrotation
              JOINT RightHand
              {
                OFFSET -22.8641 0.0664063 -0.1369
                CHANNELS 3 Zrotation Xrotation Yrotation
                JOINT RightHandIndex1
                {
                  OFFSET -8.8614 0.774994 2.4612
                  CHANNELS 3 Zrotation Xrotation Yrotation
                  JOINT RightHandIndex2
                  {
                    OFFSET -3.3146 -0.808304 0.5841
                    CHANNELS 3 Zrotation Xrotation Yrotation
                    JOINT RightHandIndex3
                    {
                      OFFSET -2.2628 -0.552002 0.3989
                      CHANNELS 3 Zrotation Xrotation Yrotation
                      End Site
                      {
                        OFFSET -1.6102 -0.4807 0.2612
                      }
                    }
                  }
                }
                JOINT RightHandMiddle1
                {
                  OFFSET -8.9937 0.894989 0.2143
                  CHANNELS 3 Zrotation Xrotation Yrotation
                  JOINT RightHandMiddle2
                  {
                    OFFSET -4.0984 0.0113983 -0.0242
                    CHANNELS 3 Zrotation Xrotation Yrotation
                    JOINT RightHandMiddle3
                    {
                      OFFSET -2.2716 0.00691223 -0.0138001
                      CHANNELS 3 Zrotation Xrotation Yrotation
                      End Site
                      {
                        OFFSET -2.0404 -0.1441 0.0027
                      }
                    }
                  }
                }
                JOINT RightHandRing1
                {
                  OFFSET -8.5234 0.597198 -2.0164
                  CHANNELS 3 Zrotation Xrotation Yrotation
                  JOINT RightHandRing2
                  {
                    OFFSET -3.7188 -0.188309 -0.2328
                    CHANNELS 3 Zrotation Xrotation Yrotation
                    JOINT RightHandRing3
                    {
                      OFFSET -2.1191 -0.106598 -0.1332
                      CHANNELS 3 Zrotation Xrotation Yrotation
                      End Site
                      {
                        OFFSET -1.8737 -0.2304 -0.0886
                      }
                    }
                  }
                }
                JOINT RightHandPinky1
                {
                  OFFSET -7.9094 -0.601105 -3.4825
                  CHANNELS 3 Zrotation Xrotation Yrotation
                  JOINT RightHandPinky2
                  {
                    OFFSET -2.2874 -0.477005 -0.6314
                    CHANNELS 3 Zrotation Xrotation Yrotation
                    JOINT RightHandPinky3
                    {
                      OFFSET -1.6774 -0.349396 -0.4633
                      CHANNELS 3 Zrotation Xrotation Yrotation
                      End Site
                      {
                        OFFSET -1.4888 -0.4091 -0.3416
                      }
                    }
                  }
                }
                JOINT RightHandThumb1
                {
                  OFFSET -1.833 -1.38751 1.3896
                  CHANNELS 3 Zrotation Xrotation Yrotation
                  JOINT RightHandThumb2
                  {
                    OFFSET -3.41299 -1.12099 2.5732
                    CHANNELS 3 Zrotation Xrotation Yrotation
                    JOINT RightHandThumb3
                    {
                      OFFSET -2.24741 -0.804108 1.6192
                      CHANNELS 3 Zrotation Xrotation Yrotation
                      End Site
                      {
                        OFFSET -1.6527 -0.5689 1.1317
                      }
                    }
                  }
                }
              }
            }
          }
        }
      }
    }
  }
  JOINT RightUpLeg
  {
    OFFSET -9.1966 3.8861 -0.7581
    CHANNELS 3 Zrotation Xrotation Yrotation
    JOINT RightLeg
    {
      OFFSET -0.7359 -41.0265 0
      CHANNELS 3 Zrotation Xrotation Yrotation
      JOINT RightFoot
      {
        OFFSET 0 -40.2855 0
        CHANNELS 3 Zrotation Xrotation Yrotation
        JOINT RightToeBase
        {
          OFFSET 0 -5.6122 11.7359
          CHANNELS 3 Zrotation Xrotation Yrotation
          End Site
          {
            OFFSET 0 0 7.8731
          }
        }
      }
    }
  }
  JOINT LeftUpLeg
  {
    OFFSET 9.1965 3.8864 -0.7581
    CHANNELS 3 Zrotation Xrotation Yrotation
    JOINT LeftLeg
    {
      OFFSET 0.7359 -41.0268 0
      CHANNELS 3 Zrotation Xrotation Yrotation
      JOINT LeftFoot
      {
        OFFSET 0 -40.2855 0
        CHANNELS 3 Zrotation Xrotation Yrotation
        JOINT LeftToeBase
        {
          OFFSET 0 -5.6122 11.7359
          CHANNELS 3 Zrotation Xrotation Yrotation
          End Site
          {
            OFFSET 0 0 7.8731
          }
        }
      }
    }
  }
}
MOTION
Frames:	5
Frame Time:	0.0333333
10.3602 5.62366 4.67561 90 -3.97569e-016 7.00164 0.180013 6.43722 -0.182356 0.38444 12.8739 -0.38894 0.384479 12.8739 -0.388936 -9.61966 22.508 3.72781 -25.1819 9.0674 5.22131 -20.8328 -0.147562 -3.1897 -17.6812 3.04724 -48.013 -48.7896 25.0974 -31.0453 11.7277 2.01572 13.1836 8.20966e-007 -2.83242e-006 6.64581e-008 0 0 -0 -1.59028e-015 -3.18055e-015 -3.18055e-015 8.20966e-007 -2.83242e-006 6.64581e-008 -0.0146269 -8.9283e-005 9.68761e-007 -7.95139e-015 -6.36111e-015 -0 8.20966e-007 -2.83242e-006 6.64581e-008 -0.0187656 -0.00116862 5.91803e-005 8.19427e-007 -2.83253e-006 6.59907e-008 8.20966e-007 -2.83242e-006 6.64581e-008 -0.0122718 -0.00324545 0.000674702 -1.59028e-015 6.36111e-015 -3.18055e-015 8.20966e-007 -2.83242e-006 6.64581e-008 0 0 -0 -1.59028e-015 -3.18055e-015 -3.18055e-015 -10.108 16.1496 -10.1963 89.7959 -4.54236 -30.0609 -17.3809 -1.93094 112.404 -1.62746 -17.4572 21.3896 7.41486e-007 -4.05776e-007 7.43816e-008 1.88875e-006 -7.00659e-008 2.43323e-007 7.41486e-007 -4.05776e-007 7.43816e-008 7.41486e-007 -4.05776e-007 7.43816e-008 0.0150013 -9.14703e-005 -2.4525e-006 7.41498e-007 -4.05766e-007 7.44342e-008 7.41486e-007 -4.05776e-007 7.43816e-008 0.0190057 -0.00119142 -5.3512e-005 7.41502e-007 -4.05764e-007 7.44412e-008 7.41486e-007 -4.05776e-007 7.43816e-008 0.0122781 -0.00324948 -0.000677508 7.41501e-007 -4.05766e-007 7.44035e-008 7.41486e-007 -4.05776e-007 7.43816e-008 1.88875e-006 -7.00659e-008 2.43323e-007 7.41486e-007 -4.05776e-007 7.43816e-008 -35.3554 -56.2442 -43.5754 19.2301 83.1338 -20.8232 -6.55493 5.68947 -0.937039 1.23463e-006 -3.24179e-006 -3.15266e-006 43.4097 -52.8809 76.2929 -140.403 59.1533 143.634 2.36719 10.3203 -4.10675 3.42857e-007 7.62961e-007 -1.59078e-007 
10.1569 5.64122 4.59282 90 -3.97569e-016 7.00164 0.180767 6.38807 -0.182271 0.385681 12.7757 -0.38861 0.385673 12.7757 -0.388615 -9.44005 22.267 3.63961 -24.9823 9.08362 5.17343 -21.5087 0.0412774 -4.04678 -17.6355 3.09693 -47.6321 -47.3912 24.1728 -30.6028 10.7866 1.80874 12.5323 2.64834e-031 9.54166e-015 -1.59028e-015 1.59028e-015 9.54166e-015 -0 1.59028e-015 3.18055e-015 -3.18055e-015 2.64834e-031 9.54166e-015 -1.59028e-015 -0.0146145 -9.08389e-005 6.45865e-006 3.18055e-015 6.36111e-015 9.54166e-015 2.64834e-031 9.54166e-015 -1.59028e-015 -0.0187906 -0.00118298 6.08823e-005 -3.18055e-015 -9.54166e-015 4.77083e-015 2.64834e-031 9.54166e-015 -1.59028e-015 -0.0122664 -0.00324845 0.00067867 -3.18055e-015 6.36111e-015 -1.59028e-015 2.64834e-031 9.54166e-015 -1.59028e-015 1.59028e-015 9.54166e-015 -0 1.59028e-015 3.18055e-015 -3.18055e-015 -9.6346 15.5346 -9.99567 89.3871 -4.39245 -29.7851 -17.3264 -2.04361 111.983 -1.81646 -17.3069 20.6419 -7.4165e-007 4.05548e-007 -7.44544e-008 -2.22495e-006 1.21664e-006 -2.23363e-007 -7.4165e-007 4.05548e-007 -7.44544e-008 -7.4165e-007 4.05548e-007 -7.44544e-008 0.0150031 -9.09781e-005 -8.60369e-007 -7.41663e-007 4.05538e-007 -7.45069e-008 -7.4165e-007 4.05548e-007 -7.44544e-008 0.0189985 -0.00118948 -5.91308e-005 -7.41667e-007 4.05536e-007 -7.45138e-008 -7.4165e-007 4.05548e-007 -7.44544e-008 0.0122705 -0.00324741 -0.000675313 -7.41665e-007 4.05538e-007 -7.44762e-008 -7.4165e-007 4.05548e-007 -7.44544e-008 -2.22495e-006 1.21664e-006 -2.23363e-007 -7.4165e-007 4.05548e-007 -7.44544e-008 -35.0999 -56.0587 -43.3252 18.3742 82.6729 -19.9656 -6.57193 5.90708 -0.890729 1.84398e-007 -2.00561e-007 -1.2527e-006 43.1303 -52.8024 75.9971 -139.863 59.3885 143.158 2.41665 10.5267 -4.22557 -8.36578e-007 1.10429e-006 4.25846e-007 
9.97342 5.65708 4.51808 90 -3.97569e-016 7.00164 0.181574 6.3437 -0.182098 0.387195 12.6869 -0.38818 0.38718 12.6869 -0.388181 -9.27891 22.0497 3.56105 -24.8031 9.09802 5.13037 -22.1176 0.22159 -4.81974 -17.5945 3.14205 -47.2881 -46.1302 23.3498 -30.1751 9.93376 1.63171 11.94 6.82886e-007 -2.97367e-006 -2.42562e-007 5.59699e-007 6.51028e-008 1.215e-007 4.77083e-015 3.18055e-015 -3.18055e-015 6.82886e-007 -2.97367e-006 -2.42562e-007 -0.0145771 -8.78808e-005 -1.28779e-006 1.59028e-015 3.18055e-015 1.11319e-014 6.82886e-007 -2.97367e-006 -2.42562e-007 -0.0187876 -0.00117515 5.97156e-005 -3.78548e-007 4.03332e-008 1.3575e-007 6.82886e-007 -2.97367e-006 -2.42562e-007 -0.0122726 -0.00324944 0.00067476 -3.77655e-007 4.00593e-008 1.35838e-007 6.82886e-007 -2.97367e-006 -2.42562e-007 5.59699e-007 6.51028e-008 1.215e-007 4.77083e-015 3.18055e-015 -3.18055e-015 -9.20634 14.9805 -9.80977 89.0175 -4.25897 -29.535 -17.2778 -2.14611 111.603 -1.98554 -17.1692 19.9675 7.41781e-007 -4.05368e-007 7.45181e-008 7.41781e-007 -4.05368e-007 7.45182e-008 7.41781e-007 -4.05368e-007 7.45181e-008 7.41781e-007 -4.05368e-007 7.45181e-008 0.0149922 -9.1707e-005 -1.1294e-006 1.26091e-006 -1.35278e-006 -2.65535e-006 7.41781e-007 -4.05368e-007 7.45181e-008 0.0189831 -0.00119107 -5.9518e-005 7.41797e-007 -4.05356e-007 7.45775e-008 7.41781e-007 -4.05368e-007 7.45181e-008 0.0122836 -0.00325208 -0.000673709 7.41795e-007 -4.05358e-007 7.454e-008 7.41781e-007 -4.05368e-007 7.45181e-008 7.41781e-007 -4.05368e-007 7.45182e-008 7.41781e-007 -4.05368e-007 7.45181e-008 -34.8716 -55.8907 -43.1019 17.6903 82.2555 -19.2788 -6.58753 6.10358 -0.848841 7.95139e-016 9.54166e-015 -3.18055e-015 42.8791 -52.7308 75.7313 -139.368 59.599 142.722 2.46174 10.713 -4.33303 -3.48543e-006 -7.90288e-007 -2.98616e-006 
9.78989 5.67293 4.44334 90 -3.97569e-016 7.00164 0.181986 6.2993 -0.181819 0.387755 12.5981 -0.387473 0.387786 12.5981 -0.387466 -9.11844 21.8321 3.48328 -24.6238 9.1123 5.08725 -22.7248 0.410289 -5.59175 -17.5538 3.18744 -46.9442 -44.8695 22.5352 -29.7302 9.07793 1.46329 11.3444 -9.86074e-009 5.11165e-008 1.86436e-006 7.43773e-007 1.73239e-007 3.76817e-007 4.77083e-015 0 -0 -9.86074e-009 5.11165e-008 1.86436e-006 -0.0146566 -9.46214e-005 3.90837e-006 -1.59028e-015 -3.18055e-015 -4.77083e-015 -9.86074e-009 5.11165e-008 1.86436e-006 -0.0187786 -0.00117567 5.66163e-005 -0 0 4.77083e-015 -9.86074e-009 5.11165e-008 1.86436e-006 -0.0122871 -0.00324914 0.000677141 -4.77083e-015 1.27222e-014 1.59028e-015 -9.86074e-009 5.11165e-008 1.86436e-006 7.43773e-007 1.73239e-007 3.76817e-007 4.77083e-015 0 -0 -8.777 14.4273 -9.61996 88.6472 -4.12707 -29.284 -17.2298 -2.24895 111.222 -2.15286 -17.0296 19.2935 -2.64834e-031 -1.59028e-015 -9.54166e-015 -2.78299e-015 -1.98785e-015 -0 7.95139e-016 1.59028e-015 -1.27222e-014 -2.64834e-031 -1.59028e-015 -9.54166e-015 0.0150007 -9.07855e-005 2.61583e-006 -3.97569e-016 -9.93923e-016 -3.18055e-015 -2.64834e-031 -1.59028e-015 -9.54166e-015 0.0190047 -0.00119048 -5.42899e-005 1.59028e-015 -1.39149e-015 -0 -2.64834e-031 -1.59028e-015 -9.54166e-015 0.0122841 -0.00325063 -0.000679721 -1.59028e-015 1.19271e-015 -3.18055e-015 -2.64834e-031 -1.59028e-015 -9.54166e-015 -2.78299e-015 -1.98785e-015 -0 7.95139e-016 1.59028e-015 -1.27222e-014 -34.6455 -55.7222 -42.8809 17.0759 81.8369 -18.6617 -6.60328 6.30012 -0.806865 2.38542e-015 -3.18055e-015 1.59028e-015 42.6289 -52.6586 75.4669 -138.868 59.8076 142.28 2.5073 10.8992 -4.44056 -4.33294e-006 -2.81742e-007 3.27622e-006 
9.60637 5.68879 4.3686 90 -3.97569e-016 7.00164 0.182278 6.25487 -0.181516 0.388194 12.5092 -0.386679 0.388161 12.5092 -0.386686 -8.95845 21.6143 3.40623 -24.4445 9.12647 5.0441 -23.3301 0.607369 -6.36257 -17.5134 3.23309 -46.6002 -43.6089 21.7297 -29.2687 8.21936 1.3036 10.7456 5.3895e-007 1.00135e-007 1.63874e-007 9.08167e-007 -2.90081e-006 -3.50233e-008 5.3895e-007 1.00135e-007 1.63874e-007 5.3895e-007 1.00135e-007 1.63874e-007 -0.0146389 -9.32469e-005 3.43046e-006 2.04152e-007 7.55848e-008 2.11051e-007 5.3895e-007 1.00135e-007 1.63874e-007 -0.0187244 -0.00117573 5.91807e-005 5.40227e-007 1.00188e-007 1.63881e-007 5.3895e-007 1.00135e-007 1.63874e-007 -0.012276 -0.00324689 0.000676334 5.39792e-007 1.00335e-007 1.63823e-007 5.3895e-007 1.00135e-007 1.63874e-007 9.08167e-007 -2.90081e-006 -3.50233e-008 5.3895e-007 1.00135e-007 1.63874e-007 -8.34657 13.8751 -9.42621 88.2764 -3.99677 -29.0322 -17.1826 -2.35216 110.842 -2.31842 -16.888 18.6202 2.9297e-006 -9.96454e-008 -2.65052e-006 2.78299e-015 1.59028e-015 -3.18055e-015 2.98675e-007 3.73619e-007 -2.96793e-006 2.9297e-006 -9.96454e-008 -2.65052e-006 0.0149841 -9.07492e-005 -5.27046e-007 8.20436e-008 -1.71605e-007 -5.77525e-006 2.9297e-006 -9.96454e-008 -2.65052e-006 0.0190034 -0.00119227 -5.78997e-005 2.98912e-007 3.7311e-007 -2.968e-006 2.9297e-006 -9.96454e-008 -2.65052e-006 0.0122442 -0.0032426 -0.000668485 2.98762e-007 3.73257e-007 -2.96799e-006 2.9297e-006 -9.96454e-008 -2.65052e-006 2.78299e-015 1.59028e-015 -3.18055e-015 2.98675e-007 3.73619e-007 -2.96793e-006 -34.4215 -55.5531 -42.6622 16.5206 81.4174 -18.1038 -6.61923 6.49674 -0.764804 -6.72512e-007 1.76844e-006 1.7199e-006 42.3798 -52.5858 75.2037 -138.361 60.0143 141.832 2.55331 11.0854 -4.54827 -3.64739e-006 1.24405e-006 2.95816e-006 
